<svg width="800px" height="800px" viewBox="0 0 24 24" fill="none" xmlns="http://www.w3.org/2000/svg">

<g id="SVGRepo_bgCarrier" stroke-width="0"/>

<g id="SVGRepo_tracerCarrier" stroke-linecap="round" stroke-linejoin="round"/>

<g id="SVGRepo_iconCarrier"> <path fill-rule="evenodd" clip-rule="evenodd" d="M9.02975 3.3437C10.9834 2.88543 13.0166 2.88543 14.9703 3.3437C17.7916 4.00549 19.9945 6.20842 20.6563 9.02975C21.1146 10.9834 21.1146 13.0166 20.6563 14.9703C19.9945 17.7916 17.7916 19.9945 14.9703 20.6563C13.0166 21.1146 10.9834 21.1146 9.02975 20.6563C6.20842 19.9945 4.0055 17.7916 3.3437 14.9703C2.88543 13.0166 2.88543 10.9834 3.3437 9.02974C4.0055 6.20841 6.20842 4.00549 9.02975 3.3437ZM13.987 13.3634C14.2114 13.5877 14.575 13.5877 14.7993 13.3634C15.0236 13.1391 15.0236 12.7754 14.7993 12.5511L12.4061 10.1579C12.2984 10.0502 12.1523 9.98967 12 9.98967C11.8476 9.98967 11.7015 10.0502 11.5938 10.1579L9.20062 12.5511C8.97631 12.7754 8.97631 13.1391 9.20062 13.3634C9.42492 13.5877 9.7886 13.5877 10.0129 13.3634L12 11.3763L13.987 13.3634Z" fill="#9ea5ff"/> </g>

</svg>