<?xml version="1.0" encoding="iso-8859-1"?>
<!-- Uploaded to: SVG Repo, www.svgrepo.com, Generator: SVG Repo Mixer Tools -->
<svg version="1.1" id="Layer_1" xmlns="http://www.w3.org/2000/svg" xmlns:xlink="http://www.w3.org/1999/xlink" 
	 viewBox="0 0 509.287 509.287" xml:space="preserve">
<circle style="fill:#6EB1E1;" cx="254.644" cy="254.644" r="254.644"/>
<path style="fill:#D6D6D8;" d="M439.777,105.791H69.51c-10.85,0-19.327,8.816-19.327,19.327V383.83
	c0,10.85,8.816,19.327,19.327,19.327h370.607c10.85,0,19.327-8.816,19.327-19.327V125.118
	C459.105,114.607,450.628,105.791,439.777,105.791z"/>
<rect x="75.274" y="163.772" style="fill:#F1F3F7;" width="360.095" height="216.668"/>
<circle style="fill:#F0582F;" cx="84.09" cy="138.003" r="8.816"/>
<circle style="fill:#FBD303;" cx="109.86" cy="138.003" r="8.816"/>
<circle style="fill:#71D456;" cx="135.968" cy="138.003" r="8.816"/>
<g>
	<path style="fill:#4F5565;" d="M311.608,330.935c-3.052,0-6.103-1.017-8.477-3.391c-4.747-4.747-4.747-12.207,0-16.615
		l38.654-38.654l-38.315-38.654c-4.747-4.747-4.747-12.207,0-16.615c4.747-4.747,12.207-4.747,16.615,0l47.131,47.131
		c4.747,4.747,4.747,12.207,0,16.615l-47.131,46.792C317.711,329.918,314.66,330.935,311.608,330.935z"/>
	<path style="fill:#4F5565;" d="M199.036,330.935c-3.052,0-6.103-1.017-8.477-3.391l-46.792-47.131
		c-4.747-4.747-4.747-12.207,0-16.615l47.131-47.131c4.747-4.747,12.207-4.747,16.615,0c4.747,4.747,4.747,12.207,0,16.615
		l-38.993,38.993l38.654,38.654c4.747,4.747,4.747,12.207,0,16.615C205.139,329.918,202.087,330.935,199.036,330.935z"/>
	<path style="fill:#4F5565;" d="M228.196,360.774c-1.356,0-2.713-0.339-4.069-0.678c-6.103-2.034-9.494-8.816-7.121-14.919
		l54.252-153.6c2.034-6.103,8.816-9.494,14.919-7.121c6.103,2.034,9.494,8.816,7.121,14.919l-54.252,153.6
		C237.69,357.722,232.943,360.774,228.196,360.774z"/>
</g>
</svg>